<svg version="1.1" id="Layer_1" xmlns="http://www.w3.org/2000/svg" xmlns:xlink="http://www.w3.org/1999/xlink" x="0px" y="0px"
	 width="100%" viewBox="0 0 343 157" enable-background="new 0 0 343 157" xml:space="preserve">
<path fill="#0000" opacity="1.000000" stroke="none" 
	d="
M237.000000,158.000000 
	C158.000015,158.000000 79.500015,158.000000 1.000021,158.000000 
	C1.000014,105.666679 1.000014,53.333366 1.000007,1.000035 
	C115.333305,1.000023 229.666611,1.000023 343.999939,1.000012 
	C343.999939,53.333298 343.999939,105.666595 343.999969,157.999939 
	C308.500000,158.000000 273.000000,158.000000 237.000000,158.000000 
M274.988495,79.003105 
	C274.988495,79.003105 274.776062,78.765373 275.753906,78.936035 
	C277.717590,78.727081 279.681244,78.518135 282.265045,78.447365 
	C282.701599,79.110405 283.138123,79.773445 283.250763,81.126617 
	C283.863190,81.736343 284.475647,82.346069 285.559906,83.233444 
	C286.031738,83.509071 286.503571,83.784698 287.119354,84.814613 
	C289.933777,86.311394 292.706818,87.426659 295.524139,83.660904 
	C296.359894,82.778252 297.195679,81.895592 298.672699,80.953888 
	C298.487396,79.954826 298.302124,78.955765 297.903442,77.345085 
	C297.822418,76.704285 297.741394,76.063484 297.877960,74.727394 
	C297.259033,74.147606 296.640106,73.567818 295.606903,72.712105 
	C295.345551,72.492073 295.162231,72.219543 295.021271,71.185631 
	C292.092804,68.836662 289.253326,66.211243 284.077026,68.025253 
	C279.718384,68.019051 275.359772,68.012856 270.554657,67.455276 
	C267.699982,68.629654 264.845276,69.804039 261.735291,71.238342 
	C261.735291,71.238342 261.373260,71.279564 260.642761,71.122154 
	C260.149506,71.829727 259.656250,72.537300 258.907990,73.940041 
	C255.016830,81.242096 256.444672,85.227806 265.133118,91.709709 
	C265.951569,91.949463 266.770050,92.189217 268.111694,92.456512 
	C268.419373,92.612953 268.727081,92.769386 269.107056,93.656334 
	C270.889801,94.322212 272.672516,94.988098 274.983124,95.727859 
	C275.297607,95.887962 275.612091,96.048065 276.033966,96.892509 
	C276.815674,97.169640 277.597382,97.446762 279.126038,97.922546 
	C283.122437,102.041878 282.892548,103.460419 277.680420,104.405418 
	C276.791351,104.574600 275.902283,104.743782 274.308136,104.956596 
	C273.289215,104.180305 272.270325,103.404015 271.652374,101.977478 
	C271.114136,101.313095 270.575867,100.648712 269.769440,99.746773 
	C269.769440,99.746773 269.710571,99.393394 269.888062,98.795349 
	C269.265259,98.489563 268.642426,98.183777 267.377502,97.800789 
	C266.967957,97.671425 266.558380,97.542061 265.908264,96.805260 
	C264.225464,97.032745 262.542694,97.260239 260.260376,97.726700 
	C259.839752,97.815063 259.419159,97.903427 258.638275,97.505035 
	C258.222839,98.169044 257.807434,98.833054 257.346680,99.826004 
	C257.346680,99.826004 257.099670,100.047897 256.362488,100.140846 
	C254.661224,102.306633 253.801056,104.378052 257.274536,106.460876 
	C257.321503,106.811211 257.368439,107.161537 257.188812,108.244370 
	C258.573456,109.415123 259.958099,110.585876 261.709900,111.790726 
	C261.709900,111.790726 261.984772,112.036545 262.088379,112.771507 
	C262.913513,113.004333 263.738647,113.237160 265.191925,113.494225 
	C265.781006,113.698257 266.370117,113.902290 266.984222,114.746628 
	C267.986969,114.847290 268.989716,114.947952 270.923035,115.015244 
	C275.283691,115.019600 279.644348,115.023949 284.343994,115.563431 
	C285.244354,115.082008 286.144684,114.600586 287.652008,113.791069 
	C288.763672,113.504181 289.875336,113.217293 291.233673,113.458893 
	C291.799866,112.926361 292.366058,112.393829 293.436859,111.447449 
	C294.947205,109.626953 296.457581,107.806450 298.718079,105.836472 
	C300.394836,103.081543 301.388733,100.370049 297.912994,97.462898 
	C297.843994,97.104774 297.774994,96.746643 297.886749,95.679001 
	C297.231812,95.134933 296.576874,94.590858 295.494476,93.824020 
	C295.219879,93.625641 295.049530,93.360329 294.988525,92.276741 
	C293.804230,91.692871 292.619965,91.109001 290.820526,90.368156 
	C289.905609,89.838730 288.990692,89.309303 287.918213,88.088226 
	C287.099945,87.879105 286.281677,87.669983 284.774200,87.373093 
	C282.848145,86.585068 280.922058,85.797050 278.887482,84.272224 
	C278.062286,84.044693 277.237061,83.817169 276.054993,83.552895 
	C276.054993,83.552895 275.809387,83.291420 275.850739,82.514481 
	C275.490295,81.266411 275.129822,80.018341 274.988495,79.003105 
M96.539894,60.112286 
	C94.542450,54.805809 90.039055,52.595356 85.119133,50.971401 
	C75.513741,47.800873 65.577339,48.509289 55.723061,48.775173 
	C51.235775,48.896248 48.831993,51.715473 48.828182,56.292374 
	C48.813908,73.429054 48.754993,90.566246 48.874409,107.702133 
	C48.908371,112.575615 51.454758,115.077156 56.304314,115.177483 
	C63.787571,115.332283 71.303078,115.564812 78.753052,115.035065 
	C82.776505,114.748970 86.891159,113.394470 90.613167,111.734055 
	C97.325821,108.739494 100.472862,103.049355 100.531158,95.782677 
	C100.585724,88.981918 97.577477,84.026299 91.143242,81.337036 
	C90.247208,80.962524 89.494019,80.246246 88.651047,79.672058 
	C98.062729,71.065163 99.155518,68.536232 96.539894,60.112286 
M227.672745,117.405403 
	C227.836929,120.869621 226.904663,123.768410 223.231766,124.846161 
	C219.995499,125.795784 217.629913,124.668938 215.531570,121.860733 
	C212.315475,117.556686 207.490738,118.487564 203.156677,119.400673 
	C201.694824,119.708656 199.701111,121.838676 199.563599,123.288948 
	C199.111908,128.052216 202.842178,130.125610 206.449280,132.010727 
	C207.172714,132.388809 207.988968,132.728668 208.788116,132.800491 
	C215.212296,133.377884 221.673477,134.553818 228.063766,134.258331 
	C237.362457,133.828369 244.512436,127.521469 244.775558,119.388275 
	C245.248810,104.759201 245.068085,90.102524 244.863052,75.461540 
	C244.793121,70.468826 241.682129,67.506935 236.800095,68.124107 
	C233.198425,68.579414 229.805405,70.685143 225.859146,72.236443 
	C220.489456,67.347672 214.975784,66.339111 207.467178,69.572380 
	C200.632645,72.515388 198.193680,78.232521 198.037567,85.193741 
	C197.929413,90.016411 197.833160,94.859940 198.146637,99.667076 
	C198.751648,108.944550 205.125427,115.328430 214.384018,115.035149 
	C218.764236,114.896385 223.080032,112.723267 227.677032,111.399277 
	C227.677032,112.553413 227.677032,114.524544 227.672745,117.405403 
M141.392853,91.502060 
	C141.428024,93.827492 141.463638,96.152908 141.498291,98.478348 
	C141.609055,105.915688 145.720337,110.652603 152.276215,113.090096 
	C159.581131,115.806099 167.183365,116.191246 174.796371,114.019287 
	C183.956482,111.405952 188.007782,106.390564 188.458725,96.877739 
	C188.600204,93.893257 188.544495,90.896355 188.496033,87.906487 
	C188.313171,76.625038 184.006424,71.275162 173.009003,68.599579 
	C154.109970,64.001572 141.439514,72.794411 141.392853,91.502060 
M117.506485,48.941502 
	C114.028336,50.267254 112.099823,52.830612 112.085709,56.508770 
	C112.020645,73.464096 111.945053,90.421036 112.126953,107.374680 
	C112.182686,112.569420 115.361443,115.185684 120.466049,115.216751 
	C126.185074,115.251556 129.087509,112.367126 129.170242,105.521072 
	C129.359039,89.897118 129.367172,74.267723 129.178192,58.643810 
	C129.083313,50.800434 126.293129,48.542820 117.506485,48.941502 
z"/>
<path fill="white" opacity="1.000000" stroke="none" 
	d="
M96.695206,60.468979 
	C99.155518,68.536232 98.062729,71.065163 88.651047,79.672058 
	C89.494019,80.246246 90.247208,80.962524 91.143242,81.337036 
	C97.577477,84.026299 100.585724,88.981918 100.531158,95.782677 
	C100.472862,103.049355 97.325821,108.739494 90.613167,111.734055 
	C86.891159,113.394470 82.776505,114.748970 78.753052,115.035065 
	C71.303078,115.564812 63.787571,115.332283 56.304314,115.177483 
	C51.454758,115.077156 48.908371,112.575615 48.874409,107.702133 
	C48.754993,90.566246 48.813908,73.429054 48.828182,56.292374 
	C48.831993,51.715473 51.235775,48.896248 55.723061,48.775173 
	C65.577339,48.509289 75.513741,47.800873 85.119133,50.971401 
	C90.039055,52.595356 94.542450,54.805809 96.695206,60.468979 
M65.854103,99.203972 
	C66.351257,100.841797 66.343430,103.149063 67.447693,103.982033 
	C69.967255,105.882614 79.362724,103.800270 81.480659,101.201530 
	C84.080643,98.011307 84.283264,94.545074 82.046112,91.048683 
	C79.822952,87.574165 72.619949,85.121559 68.056351,87.178337 
	C66.621368,87.825089 66.398636,91.464882 65.909615,93.795311 
	C65.608612,95.229713 65.853859,96.778748 65.854103,99.203972 
M77.914627,61.407398 
	C74.534615,60.851658 71.163979,60.092892 67.765549,59.935917 
	C67.185211,59.909111 65.894386,62.481041 65.950829,63.809124 
	C66.132019,68.072578 65.710846,72.915138 67.626289,76.366463 
	C69.018906,78.875732 78.192291,76.225822 80.175743,73.501198 
	C82.753021,69.960854 82.197678,66.133034 77.914627,61.407398 
z"/>
<path fill="white" opacity="1.000000" stroke="none" 
	d="
M227.674896,116.950546 
	C227.677032,114.524544 227.677032,112.553413 227.677032,111.399277 
	C223.080032,112.723267 218.764236,114.896385 214.384018,115.035149 
	C205.125427,115.328430 198.751648,108.944550 198.146637,99.667076 
	C197.833160,94.859940 197.929413,90.016411 198.037567,85.193741 
	C198.193680,78.232521 200.632645,72.515388 207.467178,69.572380 
	C214.975784,66.339111 220.489456,67.347672 225.859146,72.236443 
	C229.805405,70.685143 233.198425,68.579414 236.800095,68.124107 
	C241.682129,67.506935 244.793121,70.468826 244.863052,75.461540 
	C245.068085,90.102524 245.248810,104.759201 244.775558,119.388275 
	C244.512436,127.521469 237.362457,133.828369 228.063766,134.258331 
	C221.673477,134.553818 215.212296,133.377884 208.788116,132.800491 
	C207.988968,132.728668 207.172714,132.388809 206.449280,132.010727 
	C202.842178,130.125610 199.111908,128.052216 199.563599,123.288948 
	C199.701111,121.838676 201.694824,119.708656 203.156677,119.400673 
	C207.490738,118.487564 212.315475,117.556686 215.531570,121.860733 
	C217.629913,124.668938 219.995499,125.795784 223.231766,124.846161 
	C226.904663,123.768410 227.836929,120.869621 227.674896,116.950546 
M227.365814,97.475983 
	C226.950516,92.410255 226.975082,87.243874 225.852997,82.339867 
	C225.514450,80.860329 221.913605,79.161217 219.954697,79.325203 
	C218.397446,79.455574 216.021988,82.157867 215.830124,83.916862 
	C215.274597,89.009789 215.372894,94.224602 215.795044,99.343704 
	C215.926743,100.940575 217.679916,103.314377 219.099075,103.661026 
	C220.824051,104.082359 223.180817,103.066490 224.879486,102.037300 
	C225.989944,101.364494 226.417099,99.563927 227.365814,97.475983 
z"/>
<path fill="white" opacity="1.000000" stroke="none" 
	d="
M141.392990,91.020943 
	C141.439514,72.794411 154.109970,64.001572 173.009003,68.599579 
	C184.006424,71.275162 188.313171,76.625038 188.496033,87.906487 
	C188.544495,90.896355 188.600204,93.893257 188.458725,96.877739 
	C188.007782,106.390564 183.956482,111.405952 174.796371,114.019287 
	C167.183365,116.191246 159.581131,115.806099 152.276215,113.090096 
	C145.720337,110.652603 141.609055,105.915688 141.498291,98.478348 
	C141.463638,96.152908 141.428024,93.827492 141.392990,91.020943 
M168.630859,104.540825 
	C169.587616,103.258301 171.297882,102.016708 171.370132,100.686157 
	C171.675980,95.054779 171.737473,89.382576 171.404068,83.753983 
	C171.190735,80.152435 168.290436,78.747093 165.027206,78.809761 
	C161.795975,78.871819 159.067673,80.169632 158.913422,83.969521 
	C158.745071,88.117050 158.794891,92.274605 158.799408,96.427734 
	C158.808029,104.357353 159.917786,105.365845 168.630859,104.540825 
z"/>
<path fill="white" opacity="1.000000" stroke="none" 
	d="
M297.705994,96.388519 
	C297.774994,96.746643 297.843994,97.104774 297.991699,98.139740 
	C298.036224,101.206367 298.002075,103.596161 297.967926,105.985954 
	C296.457581,107.806450 294.947205,109.626953 292.868317,111.594482 
	C291.862183,112.137817 291.424591,112.534111 290.987000,112.930405 
	C289.875336,113.217293 288.763672,113.504181 287.019104,113.841553 
	C285.592468,114.270798 284.798737,114.649551 284.005005,115.028305 
	C279.644348,115.023949 275.283691,115.019600 270.252930,114.754272 
	C268.708252,114.364311 267.833740,114.235313 266.959198,114.106323 
	C266.370117,113.902290 265.781006,113.698257 264.714233,113.209122 
	C263.485931,112.628189 262.735352,112.332367 261.984772,112.036545 
	C261.984772,112.036545 261.709900,111.790726 261.433594,111.457962 
	C259.910004,109.920761 258.662689,108.716316 257.415405,107.511871 
	C257.368439,107.161537 257.321503,106.811211 257.242981,105.809235 
	C257.174164,103.454369 257.136902,101.751129 257.099670,100.047897 
	C257.099670,100.047897 257.346680,99.826004 257.666565,99.611252 
	C258.323792,98.928261 258.661163,98.460022 258.998535,97.991783 
	C259.419159,97.903427 259.839752,97.815063 260.990540,97.729080 
	C263.196747,97.625198 264.672791,97.518951 266.148834,97.412697 
	C266.558380,97.542061 266.967957,97.671425 267.791412,98.132263 
	C268.707062,98.773621 269.208832,99.083504 269.710571,99.393394 
	C269.710571,99.393394 269.769440,99.746773 269.835938,100.178391 
	C270.352081,101.282578 270.801758,101.955147 271.251404,102.627716 
	C272.270325,103.404015 273.289215,104.180305 274.830414,105.180077 
	C276.231476,105.248512 277.110291,105.093468 277.989075,104.938416 
	C282.892548,103.460419 283.122437,102.041878 278.649597,97.516731 
	C277.424316,96.810005 276.675446,96.509087 275.926575,96.208168 
	C275.612091,96.048065 275.297607,95.887962 274.602478,95.357727 
	C272.492828,94.300331 270.763794,93.613075 269.034760,92.925819 
	C268.727081,92.769386 268.419373,92.612953 267.697083,92.158630 
	C266.525238,91.565605 265.768005,91.270477 265.010773,90.975342 
	C256.444672,85.227806 255.016830,81.242096 259.350220,73.555740 
	C260.319397,72.540817 260.846313,71.910187 261.373260,71.279556 
	C261.373260,71.279564 261.735291,71.238342 262.244385,71.108940 
	C265.502716,69.988579 268.251923,68.997612 271.001129,68.006653 
	C275.359772,68.012856 279.718384,68.019051 284.808411,68.233475 
	C288.712219,69.592636 291.884613,70.743568 295.057007,71.894501 
	C295.162231,72.219543 295.345551,72.492073 295.798553,73.166809 
	C296.546936,74.221909 297.103638,74.822296 297.660370,75.422684 
	C297.741394,76.063484 297.822418,76.704285 297.859192,78.015511 
	C297.887085,79.461601 297.959259,80.237267 298.031433,81.012932 
	C297.195679,81.895592 296.359894,82.778252 294.812836,83.734589 
	C291.726166,83.892296 289.350769,83.976311 286.975403,84.060333 
	C286.503571,83.784698 286.031738,83.509071 285.342468,82.784500 
	C284.608246,81.702530 284.091461,81.069504 283.574677,80.436478 
	C283.138123,79.773445 282.701599,79.110405 281.759460,78.057190 
	C279.094635,78.033127 276.935333,78.399246 274.776062,78.765366 
	C274.776062,78.765373 274.988495,79.003105 274.544128,78.906158 
	C272.282013,81.213982 273.695038,82.386452 275.809387,83.291420 
	C275.809387,83.291420 276.054993,83.552895 276.400513,83.843124 
	C277.496002,84.425240 278.246002,84.717133 278.996002,85.009026 
	C280.922058,85.797050 282.848145,86.585068 285.229950,87.728928 
	C286.482391,88.316467 287.279083,88.548172 288.075775,88.779877 
	C288.990692,89.309303 289.905609,89.838730 291.302795,90.716583 
	C292.851166,91.719360 293.917297,92.373711 294.983429,93.028069 
	C295.049530,93.360329 295.219879,93.625641 295.710205,94.253204 
	C296.519257,95.251106 297.112610,95.819817 297.705994,96.388519 
z"/>
<path fill="white" opacity="1.000000" stroke="none" 
	d="
M117.877647,48.869537 
	C126.293129,48.542820 129.083313,50.800434 129.178192,58.643810 
	C129.367172,74.267723 129.359039,89.897118 129.170242,105.521072 
	C129.087509,112.367126 126.185074,115.251556 120.466049,115.216751 
	C115.361443,115.185684 112.182686,112.569420 112.126953,107.374680 
	C111.945053,90.421036 112.020645,73.464096 112.085709,56.508770 
	C112.099823,52.830612 114.028336,50.267254 117.877647,48.869537 
z"/>
<path fill="#0A0A23" opacity="1.000000" stroke="none" 
	d="
M295.039124,71.540070 
	C291.884613,70.743568 288.712219,69.592636 285.272583,68.201630 
	C289.253326,66.211243 292.092804,68.836662 295.039124,71.540070 
z"/>
<path fill="#0A0A23" opacity="1.000000" stroke="none" 
	d="
M270.777893,67.730965 
	C268.251923,68.997612 265.502716,69.988579 262.372070,70.978981 
	C264.845276,69.804039 267.699982,68.629654 270.777893,67.730965 
z"/>
<path fill="#0A0A23" opacity="1.000000" stroke="none" 
	d="
M298.343018,105.911209 
	C298.002075,103.596161 298.036224,101.206367 298.142578,98.370117 
	C301.388733,100.370049 300.394836,103.081543 298.343018,105.911209 
z"/>
<path fill="#0A0A23" opacity="1.000000" stroke="none" 
	d="
M287.047363,84.437469 
	C289.350769,83.976311 291.726166,83.892296 294.542419,83.885147 
	C292.706818,87.426659 289.933777,86.311394 287.047363,84.437469 
z"/>
<path fill="#0A0A23" opacity="1.000000" stroke="none" 
	d="
M275.264984,78.850700 
	C276.935333,78.399246 279.094635,78.033127 281.449402,77.988098 
	C279.681244,78.518135 277.717590,78.727081 275.264984,78.850700 
z"/>
<path fill="#0A0A23" opacity="1.000000" stroke="none" 
	d="
M256.731079,100.094376 
	C257.136902,101.751129 257.174164,103.454369 257.115173,105.574783 
	C253.801056,104.378052 254.661224,102.306633 256.731079,100.094376 
z"/>
<path fill="#0A0A23" opacity="1.000000" stroke="none" 
	d="
M257.302124,107.878120 
	C258.662689,108.716316 259.910004,109.920761 261.250031,111.440918 
	C259.958099,110.585876 258.573456,109.415123 257.302124,107.878120 
z"/>
<path fill="#0A0A23" opacity="1.000000" stroke="none" 
	d="
M266.028564,97.108978 
	C264.672791,97.518951 263.196747,97.625198 261.290283,97.609589 
	C262.542694,97.260239 264.225464,97.032745 266.028564,97.108978 
z"/>
<path fill="#0A0A23" opacity="1.000000" stroke="none" 
	d="
M269.070923,93.291077 
	C270.763794,93.613075 272.492828,94.300331 274.338562,95.320786 
	C272.672516,94.988098 270.889801,94.322212 269.070923,93.291077 
z"/>
<path fill="#0A0A23" opacity="1.000000" stroke="none" 
	d="
M275.830078,82.902954 
	C273.695038,82.386452 272.282013,81.213982 274.434570,78.789742 
	C275.129822,80.018341 275.490295,81.266411 275.830078,82.902954 
z"/>
<path fill="#0A0A23" opacity="1.000000" stroke="none" 
	d="
M294.985962,92.652405 
	C293.917297,92.373711 292.851166,91.719360 291.610352,90.795074 
	C292.619965,91.109001 293.804230,91.692871 294.985962,92.652405 
z"/>
<path fill="#0A0A23" opacity="1.000000" stroke="none" 
	d="
M284.174500,115.295868 
	C284.798737,114.649551 285.592468,114.270798 286.715637,114.005600 
	C286.144684,114.600586 285.244354,115.082008 284.174500,115.295868 
z"/>
<path fill="#0A0A23" opacity="1.000000" stroke="none" 
	d="
M298.352051,80.983414 
	C297.959259,80.237267 297.887085,79.461601 297.965881,78.321320 
	C298.302124,78.955765 298.487396,79.954826 298.352051,80.983414 
z"/>
<path fill="#0A0A23" opacity="1.000000" stroke="none" 
	d="
M266.971710,114.426476 
	C267.833740,114.235313 268.708252,114.364311 269.787628,114.770966 
	C268.989716,114.947952 267.986969,114.847290 266.971710,114.426476 
z"/>
<path fill="#0A0A23" opacity="1.000000" stroke="none" 
	d="
M277.834747,104.671921 
	C277.110291,105.093468 276.231476,105.248512 275.182953,105.158264 
	C275.902283,104.743782 276.791351,104.574600 277.834747,104.671921 
z"/>
<path fill="#0A0A23" opacity="1.000000" stroke="none" 
	d="
M291.110352,113.194656 
	C291.424591,112.534111 291.862183,112.137817 292.616028,111.801407 
	C292.366058,112.393829 291.799866,112.926361 291.110352,113.194656 
z"/>
<path fill="#0A0A23" opacity="1.000000" stroke="none" 
	d="
M262.036560,112.404022 
	C262.735352,112.332367 263.485931,112.628189 264.400146,113.196999 
	C263.738647,113.237160 262.913513,113.004333 262.036560,112.404022 
z"/>
<path fill="#0A0A23" opacity="1.000000" stroke="none" 
	d="
M271.451904,102.302597 
	C270.801758,101.955147 270.352081,101.282578 269.970032,100.297165 
	C270.575867,100.648712 271.114136,101.313095 271.451904,102.302597 
z"/>
<path fill="#0A0A23" opacity="1.000000" stroke="none" 
	d="
M261.007996,71.200851 
	C260.846313,71.910187 260.319397,72.540817 259.477722,73.208160 
	C259.656250,72.537300 260.149506,71.829727 261.007996,71.200851 
z"/>
<path fill="#0A0A23" opacity="1.000000" stroke="none" 
	d="
M269.799316,99.094376 
	C269.208832,99.083504 268.707062,98.773621 268.112488,98.170868 
	C268.642426,98.183777 269.265259,98.489563 269.799316,99.094376 
z"/>
<path fill="#0A0A23" opacity="1.000000" stroke="none" 
	d="
M258.818420,97.748413 
	C258.661163,98.460022 258.323792,98.928261 257.689240,99.446777 
	C257.807434,98.833054 258.222839,98.169044 258.818420,97.748413 
z"/>
<path fill="#0A0A23" opacity="1.000000" stroke="none" 
	d="
M275.980286,96.550339 
	C276.675446,96.509087 277.424316,96.810005 278.276123,97.417404 
	C277.597382,97.446762 276.815674,97.169640 275.980286,96.550339 
z"/>
<path fill="#0A0A23" opacity="1.000000" stroke="none" 
	d="
M297.796387,96.033768 
	C297.112610,95.819817 296.519257,95.251106 295.923920,94.364594 
	C296.576874,94.590858 297.231812,95.134933 297.796387,96.033768 
z"/>
<path fill="#0A0A23" opacity="1.000000" stroke="none" 
	d="
M265.071960,91.342529 
	C265.768005,91.270477 266.525238,91.565605 267.435486,92.144852 
	C266.770050,92.189217 265.951569,91.949463 265.071960,91.342529 
z"/>
<path fill="#0A0A23" opacity="1.000000" stroke="none" 
	d="
M287.997009,88.434052 
	C287.279083,88.548172 286.482391,88.316467 285.574554,87.772812 
	C286.281677,87.669983 287.099945,87.879105 287.997009,88.434052 
z"/>
<path fill="#0A0A23" opacity="1.000000" stroke="none" 
	d="
M297.769165,75.075043 
	C297.103638,74.822296 296.546936,74.221909 296.005676,73.304779 
	C296.640106,73.567818 297.259033,74.147606 297.769165,75.075043 
z"/>
<path fill="#0A0A23" opacity="1.000000" stroke="none" 
	d="
M278.941742,84.640625 
	C278.246002,84.717133 277.496002,84.425240 276.578918,83.861496 
	C277.237061,83.817169 278.062286,84.044693 278.941742,84.640625 
z"/>
<path fill="#0A0A23" opacity="1.000000" stroke="none" 
	d="
M283.412720,80.781548 
	C284.091461,81.069504 284.608246,81.702530 285.106537,82.645676 
	C284.475647,82.346069 283.863190,81.736343 283.412720,80.781548 
z"/>
<path fill="#0A0A23" opacity="1.000000" stroke="none" 
	d="
M65.853973,98.740143 
	C65.853859,96.778748 65.608612,95.229713 65.909615,93.795311 
	C66.398636,91.464882 66.621368,87.825089 68.056351,87.178337 
	C72.619949,85.121559 79.822952,87.574165 82.046112,91.048683 
	C84.283264,94.545074 84.080643,98.011307 81.480659,101.201530 
	C79.362724,103.800270 69.967255,105.882614 67.447693,103.982033 
	C66.343430,103.149063 66.351257,100.841797 65.853973,98.740143 
z"/>
<path fill="#0A0A23" opacity="1.000000" stroke="none" 
	d="
M78.204010,61.656311 
	C82.197678,66.133034 82.753021,69.960854 80.175743,73.501198 
	C78.192291,76.225822 69.018906,78.875732 67.626289,76.366463 
	C65.710846,72.915138 66.132019,68.072578 65.950829,63.809124 
	C65.894386,62.481041 67.185211,59.909111 67.765549,59.935917 
	C71.163979,60.092892 74.534615,60.851658 78.204010,61.656311 
z"/>
<path fill="#0A0A23" opacity="1.000000" stroke="none" 
	d="
M227.258057,97.872238 
	C226.417099,99.563927 225.989944,101.364494 224.879486,102.037300 
	C223.180817,103.066490 220.824051,104.082359 219.099075,103.661026 
	C217.679916,103.314377 215.926743,100.940575 215.795044,99.343704 
	C215.372894,94.224602 215.274597,89.009789 215.830124,83.916862 
	C216.021988,82.157867 218.397446,79.455574 219.954697,79.325203 
	C221.913605,79.161217 225.514450,80.860329 225.852997,82.339867 
	C226.975082,87.243874 226.950516,92.410255 227.258057,97.872238 
z"/>
<path fill="#0A0A23" opacity="1.000000" stroke="none" 
	d="
M168.235199,104.649765 
	C159.917786,105.365845 158.808029,104.357353 158.799408,96.427734 
	C158.794891,92.274605 158.745071,88.117050 158.913422,83.969521 
	C159.067673,80.169632 161.795975,78.871819 165.027206,78.809761 
	C168.290436,78.747093 171.190735,80.152435 171.404068,83.753983 
	C171.737473,89.382576 171.675980,95.054779 171.370132,100.686157 
	C171.297882,102.016708 169.587616,103.258301 168.235199,104.649765 
z"/>
</svg>