<svg version="1.1" id="Layer_1" xmlns="http://www.w3.org/2000/svg" xmlns:xlink="http://www.w3.org/1999/xlink" 
x="0px" y="0px" width="100%" viewBox="0 0 1161 280" enable-background="new 0 0 1161 280" xml:space="preserve"> 
<path fill="#0000" opacity="1.000000" stroke="none" 

	d="
M846.000000,281.000000 
	C564.000000,281.000000 282.500000,281.000000 1.000000,281.000000 
	C1.000000,187.666672 1.000000,94.333336 1.000000,1.000000 
	C388.000000,1.000000 775.000000,1.000000 1162.000000,1.000000 
	C1162.000000,94.333336 1162.000000,187.666672 1162.000000,281.000000 
	C1056.833374,281.000000 951.666687,281.000000 846.000000,281.000000 
M101.178490,230.544983 
	C114.781448,233.860016 128.567657,234.475494 142.018036,230.696854 
	C170.357925,222.735336 190.361237,204.920670 200.841812,177.304886 
	C207.733871,159.144653 208.158508,140.386032 202.927917,121.630974 
	C197.482483,102.105568 186.741272,86.040604 170.009796,74.553528 
	C150.773788,61.346954 129.796204,56.152218 106.280136,60.764980 
	C84.745163,64.989143 67.955452,75.995735 55.081123,93.125397 
	C43.069637,109.107033 37.663692,127.338699 37.877644,147.507538 
	C38.132473,171.529297 47.008636,191.739624 63.409958,208.739716 
	C73.614235,219.316528 86.247551,226.219986 101.178490,230.544983 
M550.896973,210.684708 
	C553.692017,208.646820 556.487061,206.608932 559.944458,204.088120 
	C559.944458,210.182983 560.727966,215.925842 559.630920,221.283630 
	C559.036560,224.186356 555.600281,227.128723 552.707642,228.641129 
	C551.508301,229.268250 547.326965,226.730331 546.321777,224.721161 
	C543.136841,218.355499 533.620605,215.257339 528.071411,219.760788 
	C526.510559,221.027496 525.321106,223.527710 525.135925,225.568665 
	C524.572205,231.782318 527.896667,236.219482 532.663818,239.846741 
	C540.298035,245.655624 549.227966,245.800735 557.943604,244.758759 
	C562.886292,244.167847 567.979309,241.804382 572.220581,239.037491 
	C579.901550,234.026718 581.808838,225.504013 581.832520,217.161652 
	C581.906189,191.234772 581.233459,165.306610 581.101013,139.377655 
	C581.073242,133.940903 578.298462,130.948746 573.872437,129.238998 
	C569.542908,127.566513 564.716492,129.825714 561.745300,134.691589 
	C559.853943,137.789032 559.014221,136.874573 556.671936,134.847961 
	C553.709717,132.285034 549.862000,129.678696 546.148499,129.253174 
	C535.500366,128.033066 527.137695,136.796402 524.986450,147.416260 
	C521.747192,163.407425 521.954529,179.449203 525.208801,195.309555 
	C527.233459,205.177185 537.910278,215.252243 550.896973,210.684708 
M229.804825,198.547775 
	C237.685913,210.286407 249.235382,214.020264 262.352997,211.623108 
	C268.523132,210.495544 274.629120,207.010666 279.882111,203.333817 
	C288.059753,197.609818 290.374420,188.231186 291.870575,178.958084 
	C293.233582,170.510406 290.493622,167.086884 282.296783,165.616974 
	C272.868195,163.926178 269.219177,166.638855 267.930969,176.160080 
	C267.511353,179.261688 267.510834,182.672562 266.127930,185.320038 
	C264.752411,187.953323 262.241760,190.640686 259.575684,191.792572 
	C256.071686,193.306534 252.456467,191.432053 250.819534,187.984009 
	C249.591248,185.396774 249.100616,182.252213 249.058914,179.344620 
	C248.877350,166.690582 248.978348,154.032455 248.980896,141.375824 
	C248.981903,136.379852 248.784729,131.372482 249.055893,126.390900 
	C249.365479,120.703659 252.172409,118.114235 257.488495,117.979012 
	C263.337585,117.830231 266.199921,120.201096 266.978394,125.872246 
	C267.337952,128.491272 267.995209,131.124680 267.930237,133.736969 
	C267.674896,144.005615 275.424072,145.976501 283.769135,144.521881 
	C288.217285,143.746506 291.705597,141.223160 291.899689,136.430191 
	C292.550659,120.356750 287.147430,102.429161 268.319122,97.244659 
	C256.738953,94.055992 245.539856,95.360283 236.164719,103.485123 
	C228.395874,110.217903 224.972855,119.165245 225.000671,129.463867 
	C225.047455,146.783356 224.662827,164.114288 225.217484,181.416122 
	C225.394867,186.949173 227.970322,192.405365 229.804825,198.547775 
M897.002441,161.499146 
	C897.002441,158.335617 896.919006,155.169449 897.018250,152.009048 
	C897.304565,142.892700 897.488831,133.767349 898.074585,124.668808 
	C898.340210,120.542786 901.035889,118.179062 905.311584,117.985512 
	C911.442261,117.708015 915.289673,121.088921 915.977234,127.362106 
	C916.355347,130.812012 916.620117,134.274979 917.036804,137.719864 
	C917.554565,142.001144 922.221680,144.777847 929.084717,144.981888 
	C934.333008,145.137924 939.575745,142.053253 939.906738,138.085007 
	C941.313599,121.215416 937.164001,103.185707 916.506226,97.292023 
	C904.965027,93.999306 894.263245,95.781792 884.821594,103.654335 
	C875.906433,111.087822 873.400940,121.422234 873.205994,132.052353 
	C872.880371,149.815140 873.307373,167.615952 874.131287,185.367615 
	C874.741699,198.520172 885.481018,210.476440 897.751343,211.824722 
	C917.563354,214.001694 935.469177,206.003601 939.404358,183.617264 
	C941.479858,171.810226 941.498352,166.430557 929.785278,165.530472 
	C927.196350,165.331543 924.473083,165.650742 921.940369,166.263367 
	C918.787415,167.026031 917.013855,168.964569 916.888245,172.679153 
	C916.749939,176.771118 915.906616,180.881516 914.979736,184.893631 
	C913.878296,189.660904 909.397278,192.682220 904.557922,191.957748 
	C899.766479,191.240417 898.271240,187.601700 898.012695,183.349747 
	C897.590332,176.404510 897.330750,169.449387 897.002441,161.499146 
M716.000916,106.600197 
	C713.902832,99.543007 709.392212,96.025200 702.416626,96.009758 
	C700.417358,96.005333 698.418030,96.007385 696.418762,96.009140 
	C688.282349,96.016281 683.675293,99.639549 681.638184,107.718521 
	C677.086426,125.770386 672.235779,143.756287 668.182129,161.919769 
	C666.502563,169.445450 666.201233,177.344421 665.921753,185.097000 
	C665.680176,191.798935 665.813049,198.614838 666.796936,205.229141 
	C667.606201,210.669037 671.799805,212.717270 677.680786,211.971161 
	C681.342041,211.506653 684.702515,207.407730 684.985046,203.058975 
	C685.317871,197.935623 685.818787,192.815262 685.913330,187.687454 
	C685.965515,184.856628 686.969482,183.884766 689.744751,183.947601 
	C695.739502,184.083328 701.744202,184.129288 707.735535,183.931396 
	C710.942322,183.825485 712.025330,184.837860 712.128174,188.156448 
	C712.296631,193.591049 712.764404,199.075516 713.780029,204.410614 
	C715.250488,212.134918 719.406250,212.402130 724.401062,211.968201 
	C728.707214,211.594131 731.967102,207.285965 731.990906,201.998901 
	C732.012634,197.167343 731.780273,192.323410 732.047424,187.506439 
	C732.705994,175.631592 731.148621,164.097672 727.843933,152.684204 
	C725.839844,145.762680 724.694824,138.597015 722.878113,131.615387 
	C720.765930,123.498764 718.341187,115.463486 716.000916,106.600197 
M1058.404175,100.123459 
	C1057.928345,101.152489 1057.080444,102.165276 1057.034668,103.213097 
	C1056.608032,112.985115 1056.323730,122.763321 1055.985229,132.539276 
	C1055.927612,134.206421 1055.807129,135.871368 1055.661865,138.515732 
	C1053.915039,136.606110 1053.017334,135.651688 1052.148926,134.671448 
	C1042.956177,124.295059 1030.141968,129.379669 1025.212524,136.857956 
	C1021.744263,142.119644 1019.951782,149.054932 1019.262146,155.442810 
	C1018.284912,164.493896 1018.673523,173.746414 1019.142395,182.878754 
	C1019.409973,188.089691 1020.399170,193.441925 1022.121155,198.360229 
	C1025.097778,206.862335 1031.836304,212.383469 1041.749268,212.022598 
	C1048.405396,211.780304 1051.636963,207.041626 1055.208618,202.096252 
	C1055.734741,203.265976 1056.295898,204.087738 1056.476685,204.986053 
	C1057.534546,210.242477 1063.260132,212.852051 1069.084473,211.941025 
	C1072.379028,211.425690 1076.938110,205.917419 1076.946045,202.025940 
	C1077.010376,170.394653 1077.071655,138.762650 1076.885620,107.132309 
	C1076.858276,102.519218 1074.475586,98.099724 1070.055176,96.423363 
	C1066.161987,94.946976 1061.777344,95.429871 1058.404175,100.123459 
M803.983765,152.517334 
	C803.308350,146.796661 803.326477,140.862534 801.659790,135.446915 
	C800.847595,132.807877 797.197998,130.285995 794.283203,129.233826 
	C790.277222,127.787758 786.652588,130.095047 784.873474,133.866776 
	C783.443787,136.897537 782.283264,140.335022 782.143188,143.640305 
	C781.769836,152.449661 782.379578,161.306046 781.879211,170.102798 
	C781.544556,175.985397 780.383850,181.915741 778.736511,187.575485 
	C778.190308,189.451767 775.058533,191.504410 772.953735,191.686844 
	C771.430786,191.818863 769.168823,189.268753 768.126892,187.414429 
	C767.144287,185.665512 767.054260,183.264450 767.039368,181.146973 
	C766.947754,168.159775 767.137817,155.168625 766.874146,142.186096 
	C766.813477,139.201401 765.855713,135.967377 764.418823,133.335022 
	C761.600098,128.171112 754.187012,127.588768 749.865417,131.601944 
	C745.022522,136.099258 745.358215,142.183044 745.151428,147.801071 
	C744.723022,159.441040 744.593018,171.130203 745.200073,182.754227 
	C745.511230,188.711594 747.151611,194.754837 749.132385,200.430832 
	C751.677734,207.724838 757.924683,210.864410 765.218445,211.962906 
	C773.380066,213.192062 777.325073,207.392029 781.590027,202.279388 
	C782.215271,203.504791 783.016418,205.019653 783.768127,206.558701 
	C786.193787,211.525070 790.641357,213.353485 795.338928,211.714188 
	C798.238159,210.702454 800.622803,207.388443 802.512695,204.613724 
	C803.698059,202.873428 803.903442,200.219101 803.921082,197.969971 
	C804.037109,183.151428 803.982666,168.331543 803.983765,152.517334 
M1007.958496,154.919846 
	C1006.055725,142.913025 1001.206604,133.961914 988.093689,130.285934 
	C970.459961,125.342674 949.429382,135.556946 949.971924,157.448288 
	C950.178040,165.762146 950.296204,174.098145 949.934631,182.401413 
	C949.405518,194.550873 957.051636,207.540115 969.914429,210.800430 
	C988.305237,215.461945 1007.999939,206.064194 1008.000549,184.295349 
	C1008.000854,174.811722 1007.994690,165.328079 1007.958496,154.919846 
M311.572479,206.063202 
	C318.286865,210.996277 325.868164,212.555237 334.055084,212.000671 
	C346.775116,211.139069 357.763214,201.866119 358.743042,189.589020 
	C359.754120,176.920120 359.724670,164.045792 358.687714,151.381104 
	C358.050232,143.595673 353.663940,136.692139 346.057159,132.897934 
	C337.908508,128.833466 329.779572,128.194458 320.641968,130.612808 
	C311.068298,133.146545 302.898285,142.399368 302.120361,151.425217 
	C301.266235,161.336166 301.186218,171.324799 301.049622,181.283432 
	C300.920105,190.726242 303.495605,199.204346 311.572479,206.063202 
M597.445251,148.197937 
	C596.966003,156.464096 596.070068,164.733414 596.132996,172.995438 
	C596.188110,180.237473 596.560120,187.647781 598.189209,194.659134 
	C599.815796,201.659943 604.714539,207.131241 611.660461,209.616028 
	C622.867615,213.625153 634.109863,213.065353 644.740112,207.514771 
	C651.799072,203.828949 654.455200,199.345352 653.894348,191.913849 
	C653.568970,187.601974 651.099915,185.292267 646.416077,184.908478 
	C640.349060,184.411331 635.980469,186.104355 632.613647,191.473038 
	C629.515381,196.413300 622.987732,196.362366 620.343811,191.221313 
	C618.578369,187.788452 618.657227,183.391113 617.995667,179.411285 
	C617.402832,175.844742 619.125549,174.852066 622.531494,174.936523 
	C630.520325,175.134628 638.518494,175.074310 646.510864,174.969421 
	C652.123779,174.895752 654.949158,171.906204 654.982117,166.312973 
	C655.006653,162.149704 655.094971,157.982498 654.956726,153.823624 
	C654.758179,147.853088 652.735046,142.597000 648.646606,138.111145 
	C640.219910,128.865402 629.138611,127.691872 618.032837,129.439316 
	C608.091003,131.003601 600.513977,136.928497 597.445251,148.197937 
M1100.583130,206.021088 
	C1102.883911,207.322952 1105.072632,208.904861 1107.505249,209.876923 
	C1116.716431,213.557663 1126.068359,212.629883 1135.164551,209.647461 
	C1140.710205,207.829178 1145.613037,204.629410 1148.095947,198.843613 
	C1150.702881,192.768661 1148.588135,184.394775 1140.082764,184.814880 
	C1134.963745,185.067734 1131.493042,186.293762 1128.373047,190.569611 
	C1126.733032,192.817322 1122.985840,194.462997 1120.089966,194.628357 
	C1116.243896,194.848022 1114.119141,191.382751 1113.183838,187.864426 
	C1112.468506,185.173080 1112.377319,182.316452 1111.999634,179.534531 
	C1111.537231,176.128174 1112.850952,174.826889 1116.425781,174.929199 
	C1124.411865,175.157745 1132.409180,175.024689 1140.401733,174.990555 
	C1147.087646,174.961975 1149.933472,172.393478 1149.927124,165.689499 
	C1149.921631,159.904892 1149.786255,154.037918 1148.792358,148.367889 
	C1148.203491,145.008942 1146.360718,141.537781 1144.178833,138.849976 
	C1136.421753,129.294464 1125.346191,127.633423 1114.379517,129.383453 
	C1101.183716,131.489212 1093.974243,136.936539 1092.144653,151.402054 
	C1090.797485,162.051697 1091.235596,172.935394 1091.023315,183.717667 
	C1090.855225,192.256409 1093.694580,199.641968 1100.583130,206.021088 
M481.536285,129.018066 
	C463.365204,129.278946 453.736633,139.631058 453.071594,157.640671 
	C452.715637,167.280350 452.574249,176.969711 453.140289,186.589325 
	C453.655029,195.337189 457.210083,202.875885 465.207825,207.610718 
	C476.142303,214.084183 487.337769,213.176361 498.581726,208.687149 
	C506.822449,205.397003 511.191376,199.527908 510.988037,192.511948 
	C510.860779,188.121033 507.918365,185.422028 503.514648,184.954742 
	C497.507233,184.317276 493.094238,186.015396 489.567566,191.301102 
	C488.241455,193.288651 484.412506,194.836990 482.000916,194.515121 
	C479.700134,194.208054 476.874512,191.592133 475.873322,189.296219 
	C474.476501,186.092941 474.521118,182.249207 474.024414,178.669067 
	C473.628723,175.816879 475.038849,174.918991 477.788300,174.959747 
	C485.775085,175.078079 493.764832,175.009201 501.753357,174.995346 
	C508.049347,174.984436 511.507599,171.787918 511.952759,165.435669 
	C512.115295,163.116928 512.267395,160.735931 511.933105,158.455322 
	C510.896118,151.380142 511.168640,144.014893 505.717865,138.094940 
	C499.335907,131.163574 491.238403,129.410583 481.536285,129.018066 
M387.150452,211.981720 
	C392.717896,210.578568 395.971161,205.988770 395.975616,199.320312 
	C395.995758,169.156067 395.984772,138.991806 395.984009,108.827553 
	C395.983978,107.994331 396.037018,107.154709 395.955322,106.328957 
	C395.536133,102.091232 391.534576,96.682816 388.296875,96.079720 
	C383.395447,95.166725 378.897919,96.490501 376.892792,101.027199 
	C375.136200,105.001648 374.185760,109.649620 374.143555,114.012291 
	C373.896973,139.507874 373.939056,165.007584 374.101685,190.504517 
	C374.129852,194.921906 374.927307,199.390961 375.855499,203.732239 
	C377.116547,209.630203 380.284058,211.907578 387.150452,211.981720 
M436.998779,187.488983 
	C436.997467,162.852051 437.035156,138.214996 436.948242,113.578369 
	C436.936646,110.292786 436.536499,106.960518 435.887451,103.736191 
	C434.843689,98.551102 430.809967,95.775757 425.270599,96.012863 
	C421.566681,96.171402 416.321869,100.797554 416.057098,104.405540 
	C415.608795,110.515213 415.026245,116.641472 415.072540,122.756424 
	C415.272583,149.184052 415.672516,175.610229 416.020172,202.036652 
	C416.079041,206.512589 420.604858,211.631195 424.712860,211.979462 
	C430.640656,212.481995 435.074402,209.512482 435.895660,203.820221 
	C436.625702,198.760223 436.658325,193.599625 436.998779,187.488983 
M832.306274,129.023941 
	C825.858704,129.372238 821.080261,135.051361 821.044800,142.833176 
	C820.960571,161.298706 820.914917,179.765991 821.119324,198.229645 
	C821.153076,201.276123 822.095093,204.509521 823.384277,207.302567 
	C825.791016,212.516937 833.993103,213.942535 837.668518,209.574951 
	C839.823486,207.014114 841.591492,203.365631 841.822571,200.085892 
	C842.625977,188.681824 842.235046,177.188248 843.174744,165.801010 
	C843.831238,157.844559 848.850830,154.003998 856.896851,154.068176 
	C861.074463,154.101486 863.763123,152.077957 864.772522,148.564575 
	C865.757202,145.137695 866.068726,141.343399 865.775513,137.784576 
	C865.580261,135.414917 864.377747,132.511139 862.628479,131.004669 
	C857.767456,126.818184 850.546631,129.385254 847.124146,136.109177 
	C845.682068,138.942429 844.354126,141.833801 842.974365,144.698746 
	C841.622986,143.074661 841.202454,141.462646 841.001892,139.823715 
	C840.379517,134.736115 838.700623,130.471130 832.306274,129.023941 
z"/>


<path fill="white" opacity="1.000000" stroke="none" 
	d="
M100.796402,230.388321 
	C86.247551,226.219986 73.614235,219.316528 63.409958,208.739716 
	C47.008636,191.739624 38.132473,171.529297 37.877644,147.507538 
	C37.663692,127.338699 43.069637,109.107033 55.081123,93.125397 
	C67.955452,75.995735 84.745163,64.989143 106.280136,60.764980 
	C129.796204,56.152218 150.773788,61.346954 170.009796,74.553528 
	C186.741272,86.040604 197.482483,102.105568 202.927917,121.630974 
	C208.158508,140.386032 207.733871,159.144653 200.841812,177.304886 
	C190.361237,204.920670 170.357925,222.735336 142.018036,230.696854 
	C128.567657,234.475494 114.781448,233.860016 100.796402,230.388321 
M85.993591,174.298462 
	C85.806107,186.954636 91.348351,197.237122 102.421852,202.245667 
	C118.892944,209.695602 135.669769,208.272110 150.735672,197.468613 
	C160.319824,190.595978 163.026276,179.931885 163.614655,168.996902 
	C163.991180,161.999237 156.713303,157.761490 146.853333,158.003220 
	C136.829117,158.248978 132.248306,161.829346 131.970108,169.476486 
	C131.898605,171.442322 131.240051,173.383926 131.133896,175.351913 
	C130.858917,180.448624 128.046127,182.165344 123.237175,182.068924 
	C118.029991,181.964554 117.184128,178.135803 117.127243,174.563950 
	C116.877831,158.902740 116.937508,143.234650 117.079216,127.570801 
	C117.109428,124.231712 118.498421,121.352959 122.517464,120.996422 
	C126.745728,120.621338 130.235718,121.485687 131.036835,126.423164 
	C131.459442,129.027786 131.955093,131.662964 131.954239,134.284180 
	C131.952866,138.445938 133.714203,141.840744 137.400238,142.987396 
	C141.713638,144.329239 146.410141,144.762512 150.964874,144.931396 
	C158.160675,145.198196 163.541611,141.165497 163.134048,134.131226 
	C162.696732,126.583420 161.448364,118.320007 157.862335,111.863892 
	C148.108658,94.303787 126.430748,92.321259 109.950554,97.168030 
	C93.658936,101.959335 85.416725,115.231720 85.909752,132.346436 
	C86.303085,146.000534 85.990540,159.674973 85.993591,174.298462 
z"/>
<path fill="white" opacity="1.000000" stroke="none" 
	d="
M550.576843,210.924896 
	C537.910278,215.252243 527.233459,205.177185 525.208801,195.309555 
	C521.954529,179.449203 521.747192,163.407425 524.986450,147.416260 
	C527.137695,136.796402 535.500366,128.033066 546.148499,129.253174 
	C549.862000,129.678696 553.709717,132.285034 556.671936,134.847961 
	C559.014221,136.874573 559.853943,137.789032 561.745300,134.691589 
	C564.716492,129.825714 569.542908,127.566513 573.872437,129.238998 
	C578.298462,130.948746 581.073242,133.940903 581.101013,139.377655 
	C581.233459,165.306610 581.906189,191.234772 581.832520,217.161652 
	C581.808838,225.504013 579.901550,234.026718 572.220581,239.037491 
	C567.979309,241.804382 562.886292,244.167847 557.943604,244.758759 
	C549.227966,245.800735 540.298035,245.655624 532.663818,239.846741 
	C527.896667,236.219482 524.572205,231.782318 525.135925,225.568665 
	C525.321106,223.527710 526.510559,221.027496 528.071411,219.760788 
	C533.620605,215.257339 543.136841,218.355499 546.321777,224.721161 
	C547.326965,226.730331 551.508301,229.268250 552.707642,228.641129 
	C555.600281,227.128723 559.036560,224.186356 559.630920,221.283630 
	C560.727966,215.925842 559.944458,210.182983 559.944458,204.088120 
	C556.487061,206.608932 553.692017,208.646820 550.576843,210.924896 
M557.840271,152.866989 
	C556.148193,149.685577 553.479797,148.075562 550.028198,149.231339 
	C546.542297,150.398605 545.875183,153.405487 545.935364,156.894791 
	C546.098816,166.364609 546.051880,175.839615 545.963135,185.311401 
	C545.930542,188.794342 547.364990,191.137909 550.703552,191.914383 
	C554.194397,192.726288 556.507935,190.941528 557.594543,187.706787 
	C561.389221,176.409958 561.190125,165.035934 557.840271,152.866989 
z"/>
<path fill="white" opacity="1.000000" stroke="none" 
	d="
M229.626694,198.222244 
	C227.970322,192.405365 225.394867,186.949173 225.217484,181.416122 
	C224.662827,164.114288 225.047455,146.783356 225.000671,129.463867 
	C224.972855,119.165245 228.395874,110.217903 236.164719,103.485123 
	C245.539856,95.360283 256.738953,94.055992 268.319122,97.244659 
	C287.147430,102.429161 292.550659,120.356750 291.899689,136.430191 
	C291.705597,141.223160 288.217285,143.746506 283.769135,144.521881 
	C275.424072,145.976501 267.674896,144.005615 267.930237,133.736969 
	C267.995209,131.124680 267.337952,128.491272 266.978394,125.872246 
	C266.199921,120.201096 263.337585,117.830231 257.488495,117.979012 
	C252.172409,118.114235 249.365479,120.703659 249.055893,126.390900 
	C248.784729,131.372482 248.981903,136.379852 248.980896,141.375824 
	C248.978348,154.032455 248.877350,166.690582 249.058914,179.344620 
	C249.100616,182.252213 249.591248,185.396774 250.819534,187.984009 
	C252.456467,191.432053 256.071686,193.306534 259.575684,191.792572 
	C262.241760,190.640686 264.752411,187.953323 266.127930,185.320038 
	C267.510834,182.672562 267.511353,179.261688 267.930969,176.160080 
	C269.219177,166.638855 272.868195,163.926178 282.296783,165.616974 
	C290.493622,167.086884 293.233582,170.510406 291.870575,178.958084 
	C290.374420,188.231186 288.059753,197.609818 279.882111,203.333817 
	C274.629120,207.010666 268.523132,210.495544 262.352997,211.623108 
	C249.235382,214.020264 237.685913,210.286407 229.626694,198.222244 
z"/>
<path fill="white" opacity="1.000000" stroke="none" 
	d="
M897.002441,161.998779 
	C897.330750,169.449387 897.590332,176.404510 898.012695,183.349747 
	C898.271240,187.601700 899.766479,191.240417 904.557922,191.957748 
	C909.397278,192.682220 913.878296,189.660904 914.979736,184.893631 
	C915.906616,180.881516 916.749939,176.771118 916.888245,172.679153 
	C917.013855,168.964569 918.787415,167.026031 921.940369,166.263367 
	C924.473083,165.650742 927.196350,165.331543 929.785278,165.530472 
	C941.498352,166.430557 941.479858,171.810226 939.404358,183.617264 
	C935.469177,206.003601 917.563354,214.001694 897.751343,211.824722 
	C885.481018,210.476440 874.741699,198.520172 874.131287,185.367615 
	C873.307373,167.615952 872.880371,149.815140 873.205994,132.052353 
	C873.400940,121.422234 875.906433,111.087822 884.821594,103.654335 
	C894.263245,95.781792 904.965027,93.999306 916.506226,97.292023 
	C937.164001,103.185707 941.313599,121.215416 939.906738,138.085007 
	C939.575745,142.053253 934.333008,145.137924 929.084717,144.981888 
	C922.221680,144.777847 917.554565,142.001144 917.036804,137.719864 
	C916.620117,134.274979 916.355347,130.812012 915.977234,127.362106 
	C915.289673,121.088921 911.442261,117.708015 905.311584,117.985512 
	C901.035889,118.179062 898.340210,120.542786 898.074585,124.668808 
	C897.488831,133.767349 897.304565,142.892700 897.018250,152.009048 
	C896.919006,155.169449 897.002441,158.335617 897.002441,161.998779 
z"/>
<path fill="white" opacity="1.000000" stroke="none" 
	d="
M716.026489,106.996544 
	C718.341187,115.463486 720.765930,123.498764 722.878113,131.615387 
	C724.694824,138.597015 725.839844,145.762680 727.843933,152.684204 
	C731.148621,164.097672 732.705994,175.631592 732.047424,187.506439 
	C731.780273,192.323410 732.012634,197.167343 731.990906,201.998901 
	C731.967102,207.285965 728.707214,211.594131 724.401062,211.968201 
	C719.406250,212.402130 715.250488,212.134918 713.780029,204.410614 
	C712.764404,199.075516 712.296631,193.591049 712.128174,188.156448 
	C712.025330,184.837860 710.942322,183.825485 707.735535,183.931396 
	C701.744202,184.129288 695.739502,184.083328 689.744751,183.947601 
	C686.969482,183.884766 685.965515,184.856628 685.913330,187.687454 
	C685.818787,192.815262 685.317871,197.935623 684.985046,203.058975 
	C684.702515,207.407730 681.342041,211.506653 677.680786,211.971161 
	C671.799805,212.717270 667.606201,210.669037 666.796936,205.229141 
	C665.813049,198.614838 665.680176,191.798935 665.921753,185.097000 
	C666.201233,177.344421 666.502563,169.445450 668.182129,161.919769 
	C672.235779,143.756287 677.086426,125.770386 681.638184,107.718521 
	C683.675293,99.639549 688.282349,96.016281 696.418762,96.009140 
	C698.418030,96.007385 700.417358,96.005333 702.416626,96.009758 
	C709.392212,96.025200 713.902832,99.543007 716.026489,106.996544 
M689.062988,156.581329 
	C688.775513,158.156876 688.488098,159.732422 688.153137,161.568390 
	C695.567322,161.568390 702.569214,161.568390 710.207031,161.568390 
	C706.750793,146.734283 704.033508,132.308517 699.136963,118.390869 
	C696.666138,124.668625 694.778442,130.774963 693.252380,136.970383 
	C691.720642,143.189148 690.549438,149.496719 689.062988,156.581329 
z"/>
<path fill="white" opacity="1.000000" stroke="none" 
	d="
M1058.677856,99.841965 
	C1061.777344,95.429871 1066.161987,94.946976 1070.055176,96.423363 
	C1074.475586,98.099724 1076.858276,102.519218 1076.885620,107.132309 
	C1077.071655,138.762650 1077.010376,170.394653 1076.946045,202.025940 
	C1076.938110,205.917419 1072.379028,211.425690 1069.084473,211.941025 
	C1063.260132,212.852051 1057.534546,210.242477 1056.476685,204.986053 
	C1056.295898,204.087738 1055.734741,203.265976 1055.208618,202.096252 
	C1051.636963,207.041626 1048.405396,211.780304 1041.749268,212.022598 
	C1031.836304,212.383469 1025.097778,206.862335 1022.121155,198.360229 
	C1020.399170,193.441925 1019.409973,188.089691 1019.142395,182.878754 
	C1018.673523,173.746414 1018.284912,164.493896 1019.262146,155.442810 
	C1019.951782,149.054932 1021.744263,142.119644 1025.212524,136.857956 
	C1030.141968,129.379669 1042.956177,124.295059 1052.148926,134.671448 
	C1053.017334,135.651688 1053.915039,136.606110 1055.661865,138.515732 
	C1055.807129,135.871368 1055.927612,134.206421 1055.985229,132.539276 
	C1056.323730,122.763321 1056.608032,112.985115 1057.034668,103.213097 
	C1057.080444,102.165276 1057.928345,101.152489 1058.677856,99.841965 
M1053.519775,154.217819 
	C1051.611084,151.281311 1049.775269,147.571915 1045.527710,149.268784 
	C1043.632324,150.026001 1041.344727,152.735886 1041.272705,154.636749 
	C1040.869751,165.273666 1040.820435,175.947510 1041.346802,186.574219 
	C1041.440552,188.467834 1044.540649,191.190369 1046.720825,191.770584 
	C1049.883911,192.612350 1052.985107,190.958572 1053.946167,187.269592 
	C1056.753784,176.492188 1057.348267,165.697357 1053.519775,154.217819 
z"/>
<path fill="white" opacity="1.000000" stroke="none" 
	d="
M803.983765,153.014709 
	C803.982666,168.331543 804.037109,183.151428 803.921082,197.969971 
	C803.903442,200.219101 803.698059,202.873428 802.512695,204.613724 
	C800.622803,207.388443 798.238159,210.702454 795.338928,211.714188 
	C790.641357,213.353485 786.193787,211.525070 783.768127,206.558701 
	C783.016418,205.019653 782.215271,203.504791 781.590027,202.279388 
	C777.325073,207.392029 773.380066,213.192062 765.218445,211.962906 
	C757.924683,210.864410 751.677734,207.724838 749.132385,200.430832 
	C747.151611,194.754837 745.511230,188.711594 745.200073,182.754227 
	C744.593018,171.130203 744.723022,159.441040 745.151428,147.801071 
	C745.358215,142.183044 745.022522,136.099258 749.865417,131.601944 
	C754.187012,127.588768 761.600098,128.171112 764.418823,133.335022 
	C765.855713,135.967377 766.813477,139.201401 766.874146,142.186096 
	C767.137817,155.168625 766.947754,168.159775 767.039368,181.146973 
	C767.054260,183.264450 767.144287,185.665512 768.126892,187.414429 
	C769.168823,189.268753 771.430786,191.818863 772.953735,191.686844 
	C775.058533,191.504410 778.190308,189.451767 778.736511,187.575485 
	C780.383850,181.915741 781.544556,175.985397 781.879211,170.102798 
	C782.379578,161.306046 781.769836,152.449661 782.143188,143.640305 
	C782.283264,140.335022 783.443787,136.897537 784.873474,133.866776 
	C786.652588,130.095047 790.277222,127.787758 794.283203,129.233826 
	C797.197998,130.285995 800.847595,132.807877 801.659790,135.446915 
	C803.326477,140.862534 803.308350,146.796661 803.983765,153.014709 
z"/>
<path fill="white" opacity="1.000000" stroke="none" 
	d="
M1007.974976,155.382141 
	C1007.994690,165.328079 1008.000854,174.811722 1008.000549,184.295349 
	C1007.999939,206.064194 988.305237,215.461945 969.914429,210.800430 
	C957.051636,207.540115 949.405518,194.550873 949.934631,182.401413 
	C950.296204,174.098145 950.178040,165.762146 949.971924,157.448288 
	C949.429382,135.556946 970.459961,125.342674 988.093689,130.285934 
	C1001.206604,133.961914 1006.055725,142.913025 1007.974976,155.382141 
M972.000244,187.845383 
	C973.322693,192.578430 976.543823,194.912979 981.264893,193.850433 
	C985.576782,192.879990 987.030823,189.317215 987.019348,185.095108 
	C986.994446,175.955032 987.069092,166.814362 986.989319,157.674911 
	C986.940735,152.113892 983.992188,148.992767 979.069641,148.985916 
	C974.150574,148.979065 972.011536,151.517212 971.992004,157.550018 
	C971.960266,167.354782 971.984985,177.159729 972.000244,187.845383 
z"/>
<path fill="white" opacity="1.000000" stroke="none" 
	d="
M311.313721,205.806763 
	C303.495605,199.204346 300.920105,190.726242 301.049622,181.283432 
	C301.186218,171.324799 301.266235,161.336166 302.120361,151.425217 
	C302.898285,142.399368 311.068298,133.146545 320.641968,130.612808 
	C329.779572,128.194458 337.908508,128.833466 346.057159,132.897934 
	C353.663940,136.692139 358.050232,143.595673 358.687714,151.381104 
	C359.724670,164.045792 359.754120,176.920120 358.743042,189.589020 
	C357.763214,201.866119 346.775116,211.139069 334.055084,212.000671 
	C325.868164,212.555237 318.286865,210.996277 311.313721,205.806763 
M323.001221,173.497101 
	C323.001373,177.312851 322.989410,181.128662 323.004547,184.944351 
	C323.027740,190.798904 325.510162,193.835785 330.386932,194.008087 
	C335.688293,194.195374 338.715057,191.401321 338.922455,185.424026 
	C339.169739,178.298691 339.033417,171.158066 338.970673,164.024887 
	C338.944580,161.058533 339.063751,158.010162 338.437744,155.147598 
	C337.326630,150.066956 334.499023,148.196487 329.386505,149.057999 
	C325.085022,149.782837 322.911133,152.569748 322.983856,157.069916 
	C323.066956,162.211533 323.001892,167.355560 323.001221,173.497101 
z"/>
<path fill="white" opacity="1.000000" stroke="none" 
	d="
M597.600525,147.815643 
	C600.513977,136.928497 608.091003,131.003601 618.032837,129.439316 
	C629.138611,127.691872 640.219910,128.865402 648.646606,138.111145 
	C652.735046,142.597000 654.758179,147.853088 654.956726,153.823624 
	C655.094971,157.982498 655.006653,162.149704 654.982117,166.312973 
	C654.949158,171.906204 652.123779,174.895752 646.510864,174.969421 
	C638.518494,175.074310 630.520325,175.134628 622.531494,174.936523 
	C619.125549,174.852066 617.402832,175.844742 617.995667,179.411285 
	C618.657227,183.391113 618.578369,187.788452 620.343811,191.221313 
	C622.987732,196.362366 629.515381,196.413300 632.613647,191.473038 
	C635.980469,186.104355 640.349060,184.411331 646.416077,184.908478 
	C651.099915,185.292267 653.568970,187.601974 653.894348,191.913849 
	C654.455200,199.345352 651.799072,203.828949 644.740112,207.514771 
	C634.109863,213.065353 622.867615,213.625153 611.660461,209.616028 
	C604.714539,207.131241 599.815796,201.659943 598.189209,194.659134 
	C596.560120,187.647781 596.188110,180.237473 596.132996,172.995438 
	C596.070068,164.733414 596.966003,156.464096 597.600525,147.815643 
M634.001831,152.684692 
	C633.473511,151.543793 633.161194,149.611435 632.379639,149.398102 
	C628.874512,148.441254 625.018433,146.916733 621.701172,147.599548 
	C617.651367,148.433182 617.457031,153.062378 617.078064,156.634552 
	C616.486572,162.209198 617.290771,162.949387 622.905640,162.982086 
	C625.391113,162.996567 627.888000,162.832489 630.359558,163.017792 
	C634.272461,163.311157 635.385132,161.273087 634.963501,157.862244 
	C634.782654,156.399353 634.372009,154.964874 634.001831,152.684692 
z"/>
<path fill="white" opacity="1.000000" stroke="none" 
	d="
M1100.318970,205.771881 
	C1093.694580,199.641968 1090.855225,192.256409 1091.023315,183.717667 
	C1091.235596,172.935394 1090.797485,162.051697 1092.144653,151.402054 
	C1093.974243,136.936539 1101.183716,131.489212 1114.379517,129.383453 
	C1125.346191,127.633423 1136.421753,129.294464 1144.178833,138.849976 
	C1146.360718,141.537781 1148.203491,145.008942 1148.792358,148.367889 
	C1149.786255,154.037918 1149.921631,159.904892 1149.927124,165.689499 
	C1149.933472,172.393478 1147.087646,174.961975 1140.401733,174.990555 
	C1132.409180,175.024689 1124.411865,175.157745 1116.425781,174.929199 
	C1112.850952,174.826889 1111.537231,176.128174 1111.999634,179.534531 
	C1112.377319,182.316452 1112.468506,185.173080 1113.183838,187.864426 
	C1114.119141,191.382751 1116.243896,194.848022 1120.089966,194.628357 
	C1122.985840,194.462997 1126.733032,192.817322 1128.373047,190.569611 
	C1131.493042,186.293762 1134.963745,185.067734 1140.082764,184.814880 
	C1148.588135,184.394775 1150.702881,192.768661 1148.095947,198.843613 
	C1145.613037,204.629410 1140.710205,207.829178 1135.164551,209.647461 
	C1126.068359,212.629883 1116.716431,213.557663 1107.505249,209.876923 
	C1105.072632,208.904861 1102.883911,207.322952 1100.318970,205.771881 
M1115.751099,147.858032 
	C1112.591309,151.165344 1110.002441,159.223495 1112.423584,161.297836 
	C1114.450562,163.034332 1118.407227,162.578720 1121.526123,162.954010 
	C1122.999878,163.131317 1124.515869,162.922073 1126.007690,162.992157 
	C1129.090332,163.136993 1130.285156,161.516006 1129.949829,158.678894 
	C1128.938232,150.119629 1127.123291,145.319321 1115.751099,147.858032 
z"/>
<path fill="white" opacity="1.000000" stroke="none" 
	d="
M481.999847,129.018127 
	C491.238403,129.410583 499.335907,131.163574 505.717865,138.094940 
	C511.168640,144.014893 510.896118,151.380142 511.933105,158.455322 
	C512.267395,160.735931 512.115295,163.116928 511.952759,165.435669 
	C511.507599,171.787918 508.049347,174.984436 501.753357,174.995346 
	C493.764832,175.009201 485.775085,175.078079 477.788300,174.959747 
	C475.038849,174.918991 473.628723,175.816879 474.024414,178.669067 
	C474.521118,182.249207 474.476501,186.092941 475.873322,189.296219 
	C476.874512,191.592133 479.700134,194.208054 482.000916,194.515121 
	C484.412506,194.836990 488.241455,193.288651 489.567566,191.301102 
	C493.094238,186.015396 497.507233,184.317276 503.514648,184.954742 
	C507.918365,185.422028 510.860779,188.121033 510.988037,192.511948 
	C511.191376,199.527908 506.822449,205.397003 498.581726,208.687149 
	C487.337769,213.176361 476.142303,214.084183 465.207825,207.610718 
	C457.210083,202.875885 453.655029,195.337189 453.140289,186.589325 
	C452.574249,176.969711 452.715637,167.280350 453.071594,157.640671 
	C453.736633,139.631058 463.365204,129.278946 481.999847,129.018127 
M489.882904,150.758728 
	C486.786407,147.161972 481.486603,145.745697 478.112457,147.613251 
	C474.602661,149.555893 472.135590,156.061325 474.386139,160.764938 
	C475.167175,162.397324 479.543854,162.493668 482.335022,162.919571 
	C484.434601,163.239960 486.680573,163.251434 488.752838,162.845840 
	C489.913666,162.618622 491.768524,161.218567 491.730255,160.422958 
	C491.585815,157.420532 490.793732,154.449234 489.882904,150.758728 
z"/>
<path fill="white" opacity="1.000000" stroke="none" 
	d="
M386.736267,211.983093 
	C380.284058,211.907578 377.116547,209.630203 375.855499,203.732239 
	C374.927307,199.390961 374.129852,194.921906 374.101685,190.504517 
	C373.939056,165.007584 373.896973,139.507874 374.143555,114.012291 
	C374.185760,109.649620 375.136200,105.001648 376.892792,101.027199 
	C378.897919,96.490501 383.395447,95.166725 388.296875,96.079720 
	C391.534576,96.682816 395.536133,102.091232 395.955322,106.328957 
	C396.037018,107.154709 395.983978,107.994331 395.984009,108.827553 
	C395.984772,138.991806 395.995758,169.156067 395.975616,199.320312 
	C395.971161,205.988770 392.717896,210.578568 386.736267,211.983093 
z"/>
<path fill="white" opacity="1.000000" stroke="none" 
	d="
M436.998779,187.986206 
	C436.658325,193.599625 436.625702,198.760223 435.895660,203.820221 
	C435.074402,209.512482 430.640656,212.481995 424.712860,211.979462 
	C420.604858,211.631195 416.079041,206.512589 416.020172,202.036652 
	C415.672516,175.610229 415.272583,149.184052 415.072540,122.756424 
	C415.026245,116.641472 415.608795,110.515213 416.057098,104.405540 
	C416.321869,100.797554 421.566681,96.171402 425.270599,96.012863 
	C430.809967,95.775757 434.843689,98.551102 435.887451,103.736191 
	C436.536499,106.960518 436.936646,110.292786 436.948242,113.578369 
	C437.035156,138.214996 436.997467,162.852051 436.998779,187.986206 
z"/>
<path fill="white" opacity="1.000000" stroke="none" 
	d="
M832.706909,129.035004 
	C838.700623,130.471130 840.379517,134.736115 841.001892,139.823715 
	C841.202454,141.462646 841.622986,143.074661 842.974365,144.698746 
	C844.354126,141.833801 845.682068,138.942429 847.124146,136.109177 
	C850.546631,129.385254 857.767456,126.818184 862.628479,131.004669 
	C864.377747,132.511139 865.580261,135.414917 865.775513,137.784576 
	C866.068726,141.343399 865.757202,145.137695 864.772522,148.564575 
	C863.763123,152.077957 861.074463,154.101486 856.896851,154.068176 
	C848.850830,154.003998 843.831238,157.844559 843.174744,165.801010 
	C842.235046,177.188248 842.625977,188.681824 841.822571,200.085892 
	C841.591492,203.365631 839.823486,207.014114 837.668518,209.574951 
	C833.993103,213.942535 825.791016,212.516937 823.384277,207.302567 
	C822.095093,204.509521 821.153076,201.276123 821.119324,198.229645 
	C820.914917,179.765991 820.960571,161.298706 821.044800,142.833176 
	C821.080261,135.051361 825.858704,129.372238 832.706909,129.035004 
z"/>
<path fill="" opacity="1.000000" stroke="none" 
	d="
M85.992462,173.819427 
	C85.990540,159.674973 86.303085,146.000534 85.909752,132.346436 
	C85.416725,115.231720 93.658936,101.959335 109.950554,97.168030 
	C126.430748,92.321259 148.108658,94.303787 157.862335,111.863892 
	C161.448364,118.320007 162.696732,126.583420 163.134048,134.131226 
	C163.541611,141.165497 158.160675,145.198196 150.964874,144.931396 
	C146.410141,144.762512 141.713638,144.329239 137.400238,142.987396 
	C133.714203,141.840744 131.952866,138.445938 131.954239,134.284180 
	C131.955093,131.662964 131.459442,129.027786 131.036835,126.423164 
	C130.235718,121.485687 126.745728,120.621338 122.517464,120.996422 
	C118.498421,121.352959 117.109428,124.231712 117.079216,127.570801 
	C116.937508,143.234650 116.877831,158.902740 117.127243,174.563950 
	C117.184128,178.135803 118.029991,181.964554 123.237175,182.068924 
	C128.046127,182.165344 130.858917,180.448624 131.133896,175.351913 
	C131.240051,173.383926 131.898605,171.442322 131.970108,169.476486 
	C132.248306,161.829346 136.829117,158.248978 146.853333,158.003220 
	C156.713303,157.761490 163.991180,161.999237 163.614655,168.996902 
	C163.026276,179.931885 160.319824,190.595978 150.735672,197.468613 
	C135.669769,208.272110 118.892944,209.695602 102.421852,202.245667 
	C91.348351,197.237122 85.806107,186.954636 85.992462,173.819427 
z"/>
<path fill="none" opacity="1.000000" stroke="none" 
	d="
M557.940674,153.251175 
	C561.190125,165.035934 561.389221,176.409958 557.594543,187.706787 
	C556.507935,190.941528 554.194397,192.726288 550.703552,191.914383 
	C547.364990,191.137909 545.930542,188.794342 545.963135,185.311401 
	C546.051880,175.839615 546.098816,166.364609 545.935364,156.894791 
	C545.875183,153.405487 546.542297,150.398605 550.028198,149.231339 
	C553.479797,148.075562 556.148193,149.685577 557.940674,153.251175 
z"/>
<path fill="none" opacity="1.000000" stroke="none" 
	d="
M689.141602,156.173355 
	C690.549438,149.496719 691.720642,143.189148 693.252380,136.970383 
	C694.778442,130.774963 696.666138,124.668625 699.136963,118.390869 
	C704.033508,132.308517 706.750793,146.734283 710.207031,161.568390 
	C702.569214,161.568390 695.567322,161.568390 688.153137,161.568390 
	C688.488098,159.732422 688.775513,158.156876 689.141602,156.173355 
z"/>
<path fill="none" opacity="1.000000" stroke="none" 
	d="
M1053.686523,154.572266 
	C1057.348267,165.697357 1056.753784,176.492188 1053.946167,187.269592 
	C1052.985107,190.958572 1049.883911,192.612350 1046.720825,191.770584 
	C1044.540649,191.190369 1041.440552,188.467834 1041.346802,186.574219 
	C1040.820435,175.947510 1040.869751,165.273666 1041.272705,154.636749 
	C1041.344727,152.735886 1043.632324,150.026001 1045.527710,149.268784 
	C1049.775269,147.571915 1051.611084,151.281311 1053.686523,154.572266 
z"/>
<path fill="none" opacity="1.000000" stroke="none" 
	d="
M971.993042,187.404999 
	C971.984985,177.159729 971.960266,167.354782 971.992004,157.550018 
	C972.011536,151.517212 974.150574,148.979065 979.069641,148.985916 
	C983.992188,148.992767 986.940735,152.113892 986.989319,157.674911 
	C987.069092,166.814362 986.994446,175.955032 987.019348,185.095108 
	C987.030823,189.317215 985.576782,192.879990 981.264893,193.850433 
	C976.543823,194.912979 973.322693,192.578430 971.993042,187.404999 
z"/>
<path fill="none" opacity="1.000000" stroke="none" 
	d="
M323.001221,172.997818 
	C323.001892,167.355560 323.066956,162.211533 322.983856,157.069916 
	C322.911133,152.569748 325.085022,149.782837 329.386505,149.057999 
	C334.499023,148.196487 337.326630,150.066956 338.437744,155.147598 
	C339.063751,158.010162 338.944580,161.058533 338.970673,164.024887 
	C339.033417,171.158066 339.169739,178.298691 338.922455,185.424026 
	C338.715057,191.401321 335.688293,194.195374 330.386932,194.008087 
	C325.510162,193.835785 323.027740,190.798904 323.004547,184.944351 
	C322.989410,181.128662 323.001373,177.312851 323.001221,172.997818 
z"/>
<path fill="none" opacity="1.000000" stroke="none" 
	d="
M634.033813,153.101074 
	C634.372009,154.964874 634.782654,156.399353 634.963501,157.862244 
	C635.385132,161.273087 634.272461,163.311157 630.359558,163.017792 
	C627.888000,162.832489 625.391113,162.996567 622.905640,162.982086 
	C617.290771,162.949387 616.486572,162.209198 617.078064,156.634552 
	C617.457031,153.062378 617.651367,148.433182 621.701172,147.599548 
	C625.018433,146.916733 628.874512,148.441254 632.379639,149.398102 
	C633.161194,149.611435 633.473511,151.543793 634.033813,153.101074 
z"/>
<path fill="none" opacity="1.000000" stroke="none" 
	d="
M1116.090210,147.628906 
	C1127.123291,145.319321 1128.938232,150.119629 1129.949829,158.678894 
	C1130.285156,161.516006 1129.090332,163.136993 1126.007690,162.992157 
	C1124.515869,162.922073 1122.999878,163.131317 1121.526123,162.954010 
	C1118.407227,162.578720 1114.450562,163.034332 1112.423584,161.297836 
	C1110.002441,159.223495 1112.591309,151.165344 1116.090210,147.628906 
z"/>
<path fill="none" opacity="1.000000" stroke="none" 
	d="
M490.063507,151.112518 
	C490.793732,154.449234 491.585815,157.420532 491.730255,160.422958 
	C491.768524,161.218567 489.913666,162.618622 488.752838,162.845840 
	C486.680573,163.251434 484.434601,163.239960 482.335022,162.919571 
	C479.543854,162.493668 475.167175,162.397324 474.386139,160.764938 
	C472.135590,156.061325 474.602661,149.555893 478.112457,147.613251 
	C481.486603,145.745697 486.786407,147.161972 490.063507,151.112518 
z"/>
</svg>